<?xml version="1.0" standalone="no"?>
<!DOCTYPE svg PUBLIC "-//W3C//DTD SVG 20010904//EN"
 "http://www.w3.org/TR/2001/REC-SVG-20010904/DTD/svg10.dtd">
<svg version="1.0" xmlns="http://www.w3.org/2000/svg"
 width="310.000000pt" height="278.000000pt" viewBox="0 0 310.000000 278.000000"
 preserveAspectRatio="xMidYMid meet">

<g transform="translate(0.000000,278.000000) scale(0.100000,-0.100000)"
fill="#000000" stroke="none">
<path d="M1405 2724 c-42 -6 -101 -32 -160 -70 -78 -50 -185 -114 -190 -114
-2 0 -42 -22 -87 -48 -46 -26 -101 -57 -123 -67 -22 -11 -42 -23 -45 -27 -3
-4 -17 -12 -30 -18 -14 -5 -38 -19 -55 -30 -16 -11 -37 -23 -45 -27 -8 -4 -56
-31 -106 -60 -96 -56 -166 -122 -201 -188 -49 -91 -53 -139 -53 -630 0 -552 3
-576 97 -692 33 -41 114 -103 135 -103 5 0 30 -13 55 -30 24 -16 46 -30 48
-30 3 0 38 -20 80 -44 41 -25 97 -55 125 -68 27 -13 50 -26 50 -30 0 -5 5 -8
11 -8 5 0 58 -28 117 -63 59 -35 114 -66 122 -70 8 -4 29 -15 45 -25 238 -144
334 -146 580 -8 11 6 39 24 62 39 24 15 45 27 49 27 3 0 43 23 89 50 46 28 88
50 94 50 6 0 11 3 11 8 0 4 21 18 48 32 26 13 103 57 171 97 67 40 125 73 127
73 2 0 19 11 39 25 59 39 110 98 141 161 29 59 29 61 32 270 l3 211 -70 41
c-38 23 -74 42 -80 42 -6 0 -11 3 -11 8 0 7 -9 13 -66 42 -16 8 -72 40 -124
71 -52 30 -102 58 -110 62 -8 4 -28 16 -45 26 -16 11 -61 36 -100 56 -38 21
-95 52 -125 70 -30 18 -91 51 -135 75 -276 148 -260 143 -323 112 -48 -24
-370 -201 -399 -220 -27 -17 -30 -57 -5 -66 9 -3 44 -22 77 -40 33 -19 83 -46
110 -61 28 -14 64 -34 81 -44 30 -18 84 -48 232 -127 65 -36 135 -74 217 -120
49 -28 68 -38 170 -93 100 -54 123 -74 106 -95 -11 -13 -124 -83 -161 -100 -8
-3 -27 -14 -42 -24 -68 -44 -179 -109 -233 -136 -75 -39 -150 -42 -210 -10
-98 53 -110 59 -115 66 -3 4 -17 12 -30 18 -14 6 -34 16 -45 23 -11 7 -73 43
-138 80 -117 68 -187 132 -187 169 0 10 -4 18 -10 18 -6 0 -10 105 -10 294 0
186 4 297 10 301 6 3 10 14 10 24 0 25 55 73 140 123 41 25 82 47 90 51 8 4
29 16 45 27 17 11 37 23 45 27 8 3 31 16 50 28 177 109 232 120 341 65 35 -17
69 -36 76 -42 15 -12 82 -50 128 -74 17 -8 44 -23 60 -34 17 -11 39 -24 50
-30 11 -5 27 -14 35 -19 8 -6 82 -49 163 -98 81 -48 160 -96 175 -105 15 -9
37 -23 49 -30 31 -18 160 -99 192 -120 14 -10 38 -23 54 -29 15 -6 27 -15 27
-20 0 -5 9 -9 20 -9 20 0 20 5 18 317 l-3 316 -35 20 c-19 10 -72 41 -116 68
-45 27 -84 49 -87 49 -4 0 -23 12 -44 26 -21 14 -47 30 -58 35 -11 5 -27 13
-35 19 -56 36 -241 140 -249 140 -6 0 -11 4 -11 9 0 5 -10 13 -22 17 -11 3
-61 31 -110 60 -49 30 -130 76 -181 103 -83 45 -100 50 -172 54 -44 3 -93 3
-110 1z"/>
</g>
</svg>
