<svg width="375" height="1069" viewBox="0 0 375 1069" fill="none" xmlns="http://www.w3.org/2000/svg">
<g opacity="0.1">
<path d="M-52.6338 -442.673C-482.876 -224.798 -234.218 216.118 -56.1095 409.341C479.779 859.701 644.671 309.886 413.589 -50.8604C182.507 -411.607 983.412 -248.616 944.01 -780.714C898.322 -1397.7 485.169 -715.016 -52.6338 -442.673Z" stroke="#EFEFF0"/>
<path opacity="0.95875" d="M-36.3996 -426.528C-473.983 -223.801 -240.865 225.524 -69.608 424.846C450.237 893.634 634.217 349.909 415.865 -18.6828C197.514 -387.275 992.242 -196.432 971.434 -729.58C947.307 -1347.79 510.58 -679.936 -36.3996 -426.528Z" stroke="#EFEFF0"/>
<path opacity="0.9175" d="M-20.7392 -409.826C-465.131 -222.494 -247.836 234.694 -83.6399 439.871C419.528 926.515 622.372 389.542 417.017 13.5546C211.662 -362.433 999.246 -143.971 997.057 -677.521C994.52 -1296.19 534.751 -643.99 -20.7392 -409.826Z" stroke="#EFEFF0"/>
<path opacity="0.87625" d="M-5.67127 -392.587C-456.331 -220.879 -255.124 243.614 -98.1876 454.396C387.69 958.304 609.15 428.738 417.042 45.8125C224.934 -337.113 1004.41 -91.2976 1020.85 -624.599C1039.9 -1242.98 557.653 -607.223 -5.67127 -392.587Z" stroke="#EFEFF0"/>
<path opacity="0.835" d="M8.7859 -374.833C-447.591 -218.957 -262.717 252.274 -113.233 468.405C354.762 988.963 594.569 467.448 415.942 78.0517C237.315 -311.345 1007.74 -38.4759 1042.78 -570.879C1083.4 -1188.22 579.258 -569.679 8.7859 -374.833Z" stroke="#EFEFF0"/>
<path opacity="0.79375" d="M22.6147 -356.586C-438.925 -216.732 -270.609 260.664 -128.759 481.881C320.784 1018.45 578.646 505.626 413.717 110.233C248.789 -285.16 1009.22 14.4297 1062.82 -516.426C1124.96 -1131.97 599.539 -531.403 22.6147 -356.586Z" stroke="#EFEFF0"/>
<path opacity="0.7525" d="M35.7982 -337.867C-430.341 -214.206 -278.789 268.774 -144.745 494.806C285.798 1046.74 561.4 543.225 410.371 142.317C259.342 -258.592 1008.86 67.3548 1080.95 -461.307C1164.54 -1074.31 618.472 -492.443 35.7982 -337.867Z" stroke="#EFEFF0"/>
<path opacity="0.71125" d="M48.3204 -318.699C-421.85 -211.382 -287.246 276.593 -161.173 507.166C249.846 1073.79 542.852 580.199 405.907 174.264C268.961 -231.671 1006.64 120.235 1097.14 -405.589C1202.07 -1015.3 636.034 -452.847 48.3204 -318.699Z" stroke="#EFEFF0"/>
<path opacity="0.67" d="M60.1661 -299.106C-413.464 -208.263 -295.972 284.112 -178.022 518.944C212.971 1099.57 523.025 616.504 400.33 206.037C277.635 -204.43 1002.59 173.006 1111.38 -349.34C1237.53 -955.021 652.203 -412.661 60.1661 -299.106Z" stroke="#EFEFF0"/>
<path opacity="0.62875" d="M71.3216 -279.111C-405.19 -204.853 -304.953 291.323 -195.271 530.128C175.221 1124.04 501.945 652.094 393.649 237.595C285.354 -176.904 996.693 225.603 1123.65 -292.628C1270.85 -893.537 666.961 -371.935 71.3216 -279.111Z" stroke="#EFEFF0"/>
<path opacity="0.5875" d="M81.7707 -258.74C-397.042 -201.156 -314.183 298.215 -212.901 540.703C136.637 1147.19 479.633 686.927 385.869 268.901C292.106 -149.125 988.964 277.962 1133.93 -235.522C1302.02 -830.928 680.287 -330.72 81.7707 -258.74Z" stroke="#EFEFF0"/>
<path opacity="0.54625" d="M91.5024 -238.016C-389.028 -197.178 -323.647 304.781 -230.89 550.656C97.2693 1168.97 456.119 720.96 377.001 299.917C297.884 -121.127 979.412 330.02 1142.21 -178.093C1330.97 -767.269 692.166 -289.064 91.5024 -238.016Z" stroke="#EFEFF0"/>
<path opacity="0.505" d="M100.506 -216.965C-381.157 -192.922 -333.334 311.013 -249.215 559.975C57.1663 1189.36 431.433 754.152 367.057 330.604C302.682 -92.9447 968.051 381.712 1148.48 -120.409C1357.69 -702.639 702.585 -247.019 100.506 -216.965Z" stroke="#EFEFF0"/>
<path opacity="0.46375" d="M108.771 -195.613C-373.438 -188.394 -343.231 316.903 -267.851 568.649C16.3778 1208.35 405.605 786.462 356.05 360.925C306.496 -64.612 954.894 432.977 1152.74 -62.542C1382.14 -637.116 711.533 -204.636 108.771 -195.613Z" stroke="#EFEFF0"/>
<path opacity="0.4225" d="M116.283 -173.985C-365.885 -183.6 -353.331 322.444 -286.783 576.667C-25.0522 1225.9 378.661 817.851 343.988 390.843C309.315 -36.1637 939.952 483.751 1154.97 -4.56157C1404.29 -570.779 718.991 -161.967 116.283 -173.985Z" stroke="#EFEFF0"/>
<path opacity="0.38125" d="M123.038 -152.108C-358.5 -178.544 -363.614 327.629 -305.979 584.02C-67.0655 1241.99 350.643 848.28 330.893 420.323C311.143 -7.63414 923.252 533.972 1155.18 53.4615C1424.1 -503.71 724.961 -119.063 123.038 -152.108Z" stroke="#EFEFF0"/>
<path opacity="0.34" d="M129.022 -130.009C-351.299 -173.235 -374.076 332.452 -325.424 590.698C-109.619 1256.6 321.575 877.713 316.773 449.327C311.971 20.9417 904.805 583.581 1153.36 111.457C1441.57 -435.99 729.425 -75.9772 129.022 -130.009Z" stroke="#EFEFF0"/>
<path opacity="0.29875" d="M134.234 -107.715C-344.287 -167.677 -384.698 336.907 -345.088 596.694C-152.654 1269.72 291.5 906.114 301.651 477.821C311.802 49.5292 884.639 632.515 1149.52 169.353C1456.66 -367.702 732.385 -32.7618 134.234 -107.715Z" stroke="#EFEFF0"/>
<path opacity="0.2575" d="M138.664 -85.2517C-337.473 -161.877 -395.469 340.988 -364.95 602C-196.121 1281.34 260.452 933.447 285.545 505.77C310.637 78.0933 862.779 680.716 1143.66 227.08C1469.36 -298.929 733.835 10.5305 138.664 -85.2517Z" stroke="#EFEFF0"/>
<path opacity="0.21625" d="M142.308 -62.648C-330.864 -155.844 -406.374 344.691 -384.983 606.609C-239.966 1291.42 228.47 959.681 268.473 533.14C308.476 106.599 839.25 728.124 1135.79 284.567C1479.65 -229.755 733.774 53.847 142.308 -62.648Z" stroke="#EFEFF0"/>
<path opacity="0.175" d="M145.16 -39.9307C-324.472 -149.583 -417.405 348.012 -405.167 610.516C-284.138 1299.97 195.591 984.782 250.455 559.897C305.319 135.013 814.079 774.682 1125.92 341.745C1487.51 -160.263 732.199 97.1352 145.16 -39.9307Z" stroke="#EFEFF0"/>
<path opacity="0.13375" d="M147.217 -17.1279C-318.301 -143.104 -428.543 350.945 -425.475 613.717C-328.581 1306.98 161.856 1008.72 231.515 586.01C301.174 163.298 787.3 820.334 1114.06 398.544C1492.95 -90.5394 729.116 140.342 147.217 -17.1279Z" stroke="#EFEFF0"/>
<path opacity="0.0925" d="M148.478 5.73295C-312.361 -136.413 -439.778 353.488 -445.881 616.206C-373.241 1312.43 127.306 1031.47 211.675 611.445C296.044 191.422 758.944 865.023 1100.23 454.894C1495.96 -20.6683 724.526 183.415 148.478 5.73295Z" stroke="#EFEFF0"/>
<path opacity="0.05125" d="M148.94 28.6238C-306.657 -129.518 -451.094 355.637 -466.362 617.983C-418.064 1316.31 91.9832 1052.99 190.959 636.172C289.936 219.35 729.045 908.696 1084.43 510.726C1496.52 49.265 718.437 226.301 148.94 28.6238Z" stroke="#EFEFF0"/>
<path opacity="0.01" d="M148.603 51.5166C-301.197 -122.429 -462.478 357.39 -486.893 619.043C-462.995 1318.63 55.9307 1073.28 169.394 660.162C282.856 247.047 697.641 951.298 1066.7 565.974C1494.64 119.175 710.854 268.949 148.603 51.5166Z" stroke="#EFEFF0"/>
</g>
</svg>
